<svg width="16" height="19" viewBox="0 0 16 19" fill="none" xmlns="http://www.w3.org/2000/svg">
<g clip-path="url(#clip0)">
<path d="M12.5714 4.57143C12.5714 2.05075 10.5207 0 8 0C5.47929 0 3.42857 2.05075 3.42857 4.57143H0V15.4286C0 17.0065 1.27918 18.2857 2.85714 18.2857H13.1429C14.7208 18.2857 16 17.0065 16 15.4286V4.57143H12.5714ZM8 1.14286C9.89054 1.14286 11.4286 2.68089 11.4286 4.57143H4.57143C4.57143 2.68089 6.10946 1.14286 8 1.14286ZM14.8571 15.4286C14.8571 16.3738 14.0881 17.1429 13.1429 17.1429H2.85714C1.91189 17.1429 1.14286 16.3738 1.14286 15.4286V5.71429H3.42857V7.42857C3.42857 7.74418 3.68443 8 4 8C4.31557 8 4.57143 7.74418 4.57143 7.42857V5.71429H11.4286V7.42857C11.4286 7.74418 11.6844 8 12 8C12.3156 8 12.5714 7.74418 12.5714 7.42857V5.71429H14.8571V15.4286Z" fill="white"/>
</g>
<defs>
<clipPath id="clip0">
<rect width="16" height="18.2857" fill="white"/>
</clipPath>
</defs>
</svg>
