<svg width="15" height="20" viewBox="0 0 15 20" fill="none" xmlns="http://www.w3.org/2000/svg">
<path d="M7.5 3.75C5.43223 3.75 3.75 5.43223 3.75 7.5C3.75 9.56777 5.43223 11.25 7.5 11.25C9.56777 11.25 11.25 9.56777 11.25 7.5C11.25 5.43223 9.56777 3.75 7.5 3.75ZM7.5 10C6.12148 10 5 8.87852 5 7.5C5 6.12148 6.12148 5 7.5 5C8.87852 5 10 6.12148 10 7.5C10 8.87852 8.87852 10 7.5 10ZM7.5 0C3.35785 0 0 3.35785 0 7.5C0 10.5239 1.05352 11.3684 6.72922 19.5965C7.10164 20.1345 7.89832 20.1345 8.27082 19.5965C13.9465 11.3684 15 10.5239 15 7.5C15 3.35785 11.6421 0 7.5 0ZM7.5 18.5129C2.05879 10.6441 1.25 10.0193 1.25 7.5C1.25 5.83055 1.90012 4.26105 3.08059 3.08059C4.26105 1.90012 5.83055 1.25 7.5 1.25C9.16945 1.25 10.7389 1.90012 11.9194 3.08059C13.0999 4.26105 13.75 5.83055 13.75 7.5C13.75 10.0191 12.9417 10.6434 7.5 18.5129Z" fill="white"/>
</svg>
