<svg width="20" height="18" viewBox="0 0 20 18" fill="none" xmlns="http://www.w3.org/2000/svg">
<g clip-path="url(#clip0)">
<path d="M0 2.08322C0 7.04502 2.42361 9.57627 6.54861 9.9478L2.92361 13.1631C2.02778 13.9582 1.98611 15.3506 2.83333 16.1943L3.80556 17.1666C4.65972 18.0207 6.04861 17.9686 6.8368 17.0763L10.0694 13.427C13.4132 17.3679 13.1736 17.0867 13.2049 17.1179C14 17.9652 15.3542 18.0103 16.1979 17.1666L17.1701 16.1943C18.0069 15.3575 17.9757 13.9964 17.1146 13.1943L13.3611 9.71169L13.6111 9.44433C14.9583 9.86447 16.2882 9.68738 17.441 8.53808C18.1667 7.81238 19.5833 5.77072 19.7604 5.51377C20.4583 4.52419 19.5069 3.19433 18.4618 3.06238C18.3646 2.29502 17.6424 1.62141 16.9375 1.5346C16.8021 0.458215 15.4583 -0.448035 14.4861 0.235993C14.2292 0.413076 12.1875 1.83322 11.4618 2.55891C10.3472 3.67349 10.1181 4.99988 10.5556 6.38877L10.1667 6.74641L3.5 0.55891C2.17361 -0.673729 0 0.267243 0 2.08322ZM13.184 8.23599L12.5451 8.95475L10.9861 7.50683L11.7674 6.81586C11.1146 5.67002 11.2326 4.36099 12.25 3.34363C12.9271 2.66308 15.125 1.14572 15.125 1.14572C15.3889 0.954743 15.9965 1.5728 15.7986 1.82974L12.9861 4.63877C12.7431 4.92349 13.3646 5.55544 13.6597 5.3228L16.6493 2.67002C16.9062 2.48252 17.5139 3.08669 17.3264 3.34711L14.6736 6.33669C14.4444 6.63183 15.0729 7.25683 15.3611 7.01377L18.1701 4.20474C18.4271 4.00336 19.0451 4.61447 18.8542 4.87836C18.8542 4.87836 17.3368 7.0728 16.6562 7.75683C15.6285 8.77766 14.3194 8.88183 13.184 8.23599ZM7.59375 10.5103L9.34375 12.5693L6.00694 16.3402C5.63542 16.7568 4.98958 16.7811 4.59028 16.3818L3.61806 15.4096C3.22222 15.0138 3.24306 14.3645 3.65972 13.9929L7.59375 10.5103ZM1.11111 2.08322C1.11111 1.23599 2.12153 0.791549 2.74653 1.37141L16.3576 14.0103C16.7604 14.3853 16.7743 15.0207 16.3819 15.4096L15.4097 16.3818C15.0208 16.7707 14.3889 16.7603 14.0139 16.361L7.67361 8.88877C2.8125 8.88877 1.11111 6.15266 1.11111 2.08322Z" fill="white"/>
</g>
<defs>
<clipPath id="clip0">
<rect width="20" height="17.7778" fill="white"/>
</clipPath>
</defs>
</svg>
