<svg width="72" height="72" viewBox="0 0 72 72" fill="none" xmlns="http://www.w3.org/2000/svg">
<g clip-path="url(#clip0)">
<path opacity="0.4" d="M45.0296 34.2913L38.0405 48.2695C37.85 48.6501 37.5555 48.9688 37.1911 49.1887C36.8267 49.4086 36.4074 49.5207 35.9818 49.5118C35.5563 49.503 35.142 49.3736 34.7871 49.1388C34.4321 48.904 34.151 48.5733 33.9765 48.1851L25.9749 30.4242L21.7562 40.507H8.52335L34.1874 66.7335C34.4213 66.9769 34.7019 67.1705 35.0124 67.3028C35.3229 67.4351 35.6569 67.5033 35.9944 67.5033C36.332 67.5033 36.666 67.4351 36.9765 67.3028C37.287 67.1705 37.5676 66.9769 37.8015 66.7335L63.481 40.507H48.1374L45.0296 34.2913ZM66.6155 10.4062L66.278 10.0546C64.5623 8.29872 62.5128 6.90349 60.2501 5.9509C57.9875 4.99832 55.5572 4.50761 53.1022 4.50761C50.6472 4.50761 48.2169 4.99832 45.9542 5.9509C43.6916 6.90349 41.6421 8.29872 39.9263 10.0546L36.0001 14.0695L32.0766 10.0617C30.3625 8.30259 28.3135 6.90455 26.0505 5.94997C23.7875 4.99539 21.3562 4.5036 18.9001 4.5036C16.444 4.5036 14.0127 4.99539 11.7497 5.94997C9.48663 6.90455 7.43763 8.30259 5.72351 10.0617L5.38742 10.4062C-1.46102 17.4093 -1.75633 28.5609 4.36085 36.014H18.7623L23.8093 23.8921C23.9774 23.4855 24.2611 23.1371 24.6252 22.89C24.9894 22.6429 25.418 22.5081 25.858 22.5021C26.2979 22.4961 26.73 22.6192 27.1008 22.8563C27.4715 23.0934 27.7645 23.434 27.9437 23.8359L36.1294 42.0187L43.0201 28.2515C43.2074 27.8789 43.4946 27.5657 43.8495 27.3469C44.2045 27.1281 44.6133 27.0122 45.0303 27.0122C45.4473 27.0122 45.8561 27.1281 46.2111 27.3469C46.5661 27.5657 46.8532 27.8789 47.0405 28.2515L50.9218 36.014H67.6407C73.7593 28.5538 73.4654 17.4023 66.6155 10.4062Z" fill="#B99764"/>
<path d="M63.422 40.4999L63.408 40.5069H48.1375L45.0297 34.2913L38.0406 48.2695C37.8501 48.65 37.5556 48.9688 37.1912 49.1887C36.8268 49.4086 36.4075 49.5206 35.9819 49.5118C35.5564 49.503 35.1421 49.3736 34.7872 49.1388C34.4322 48.904 34.1511 48.5732 33.9766 48.1851L25.975 30.4241L21.7563 40.5069H8.5783V40.4999L4.36658 36.0069H18.7624L23.8094 23.8851C23.9775 23.4784 24.2612 23.13 24.6253 22.8829C24.9895 22.6359 25.4181 22.501 25.858 22.495C26.298 22.489 26.7301 22.6122 27.1008 22.8493C27.4716 23.0863 27.7646 23.4269 27.9438 23.8288L36.1295 42.0116L43.0202 28.2445C43.2075 27.8719 43.4947 27.5587 43.8496 27.3399C44.2046 27.121 44.6134 27.0051 45.0304 27.0051C45.4474 27.0051 45.8562 27.121 46.2112 27.3399C46.5662 27.5587 46.8533 27.8719 47.0406 28.2445L50.9219 36.0069H67.6408L63.422 40.4999Z" fill="#B99764"/>
</g>
<defs>
<clipPath id="clip0">
<rect width="72" height="72" fill="white"/>
</clipPath>
</defs>
</svg>
