<svg width="36" height="36" viewBox="0 0 36 36" fill="none" xmlns="http://www.w3.org/2000/svg">
<circle cx="18" cy="18" r="18" fill="#B99764"/>
<path d="M17.9548 24.1392C20.3411 24.1392 22.0364 22.8764 22.0315 21.1065C22.0364 19.8537 21.2161 18.9588 19.6451 18.7748V18.6953C20.8234 18.5263 21.6586 17.7358 21.6536 16.5923C21.6586 14.9318 20.1572 13.679 17.9747 13.679C15.7772 13.679 14.1764 14.9517 14.1565 16.7613H16.508C16.5279 16.0653 17.1543 15.598 17.9747 15.598C18.7552 15.598 19.2872 16.0703 19.2822 16.7514C19.2872 17.4574 18.6607 17.9446 17.7559 17.9446H16.7666V19.6946H17.7559C18.785 19.6946 19.4562 20.2017 19.4462 20.9176C19.4562 21.6385 18.8397 22.1406 17.9647 22.1406C17.0947 22.1406 16.4533 21.6782 16.4285 21.0071H13.9526C13.9725 22.8466 15.6281 24.1392 17.9548 24.1392Z" fill="white"/>
</svg>
