<svg width="90" height="72" viewBox="0 0 90 72" fill="none" xmlns="http://www.w3.org/2000/svg">
<g clip-path="url(#clip0)">
<path opacity="0.4" d="M69.0905 27.6398C76.4466 35.7539 81 45.9042 81 54C81 70.1536 62.8678 72 40.5 72C18.1322 72 0 70.1536 0 54C0 37.8464 18.1322 13.5 40.5 13.5C47.1881 13.5 53.4966 15.6769 59.0625 19.1602C58.1752 19.5469 57.2344 19.9069 56.2345 20.2373C52.0327 21.6281 48.2105 22.0922 46.2136 22.0655C43.3575 22.0261 40.7363 22.4564 38.4258 23.3452C36.2222 24.1779 34.2318 25.491 32.5992 27.1891C30.9665 28.8872 29.7326 30.9276 28.987 33.1622C27.18 38.6803 28.2741 44.6006 31.912 48.9966C33.3349 50.7352 35.1094 52.1534 37.119 53.1579C39.1286 54.1625 41.328 54.7308 43.5727 54.8255C44.5865 54.8717 45.6024 54.8289 46.6087 54.6975C52.7498 53.9156 57.9712 49.185 59.9062 42.6459C60.4012 40.9711 62.4713 36.0661 65.7042 31.5942C66.7088 30.1746 67.8423 28.8509 69.0905 27.6398Z" fill="#B99764"/>
<path d="M89.9127 20.0503C89.2912 24.1284 86.5504 26.4431 82.5848 26.2575C82.4512 26.2575 82.3162 26.242 82.1812 26.2307C80.8438 26.1106 79.5431 25.7283 78.3534 25.1057C77.5692 24.682 76.7009 24.437 75.8109 24.3886C74.2218 24.314 72.5132 24.9412 70.7343 26.2546C69.0637 27.4865 67.3691 29.2851 65.6971 31.5984C62.4627 36.0703 60.3941 40.9753 59.8991 42.6501C57.9641 49.1892 52.7413 53.9198 46.6016 54.7017C45.5953 54.8331 44.5794 54.8759 43.5655 54.8296C41.3208 54.7351 39.1214 54.1669 37.1118 53.1624C35.1022 52.1578 33.3277 50.7396 31.9049 49.0007C28.2669 44.6048 27.1729 38.6845 28.9799 33.1664C29.7248 30.9308 30.9584 28.8892 32.5911 27.1901C34.2238 25.491 36.2145 24.177 38.4187 23.3437C40.7291 22.455 43.3504 22.0246 46.2065 22.064C48.2034 22.0907 52.0255 21.6267 56.2274 20.2359C60.5277 18.8114 63.8873 16.8201 65.6873 14.6264C67.0935 12.9079 67.5716 11.0812 67.1329 9.03933C66.8348 7.62468 66.9503 6.15413 67.4655 4.80332C67.9807 3.45252 68.8738 2.27857 70.0382 1.42168C71.3771 0.426828 73.0197 -0.0726677 74.6859 0.00839646C75.7283 0.0582166 76.7487 0.325835 77.6815 0.794014C78.6142 1.26219 79.4385 1.92055 80.1013 2.72668C81.4457 4.36355 82.0054 6.46308 81.6777 8.63293V8.65683C81.496 9.77594 81.0634 10.8394 80.4121 11.7675C81.2494 11.4937 82.1295 11.3745 83.0094 11.4159C83.2429 11.4271 83.4777 11.4496 83.7126 11.4834H83.7323C87.7499 12.1078 90.5329 15.9454 89.9127 20.0503Z" fill="#B99764"/>
</g>
<defs>
<clipPath id="clip0">
<rect width="90" height="72" fill="white"/>
</clipPath>
</defs>
</svg>
