<svg width="36" height="36" viewBox="0 0 36 36" fill="none" xmlns="http://www.w3.org/2000/svg">
<circle cx="18" cy="18" r="18" fill="#281C18"/>
<path d="M17.9546 24.1392C20.341 24.1392 22.0363 22.8764 22.0314 21.1065C22.0363 19.8537 21.216 18.9588 19.645 18.7748V18.6953C20.8233 18.5263 21.6585 17.7358 21.6535 16.5923C21.6585 14.9318 20.1571 13.679 17.9745 13.679C15.7771 13.679 14.1762 14.9517 14.1563 16.7613H16.5079C16.5278 16.0653 17.1542 15.598 17.9745 15.598C18.7551 15.598 19.287 16.0703 19.2821 16.7514C19.287 17.4574 18.6606 17.9446 17.7558 17.9446H16.7664V19.6946H17.7558C18.7849 19.6946 19.4561 20.2017 19.4461 20.9176C19.4561 21.6385 18.8396 22.1406 17.9646 22.1406C17.0946 22.1406 16.4532 21.6782 16.4284 21.0071H13.9525C13.9724 22.8466 15.6279 24.1392 17.9546 24.1392Z" fill="white"/>
</svg>
