<svg width="63" height="72" viewBox="0 0 63 72" fill="none" xmlns="http://www.w3.org/2000/svg">
<path opacity="0.4" d="M22.5 0C21.61 0 20.74 0.26392 19.9999 0.758387C19.2599 1.25285 18.6831 1.95566 18.3425 2.77792C18.0019 3.60019 17.9128 4.50499 18.0865 5.37791C18.2601 6.25082 18.6887 7.05264 19.318 7.68198C19.9474 8.31132 20.7492 8.7399 21.6221 8.91353C22.495 9.08717 23.3998 8.99805 24.2221 8.65746C25.0443 8.31686 25.7471 7.74009 26.2416 7.00007C26.7361 6.26005 27 5.39002 27 4.5C27 3.30653 26.5259 2.16193 25.682 1.31802C24.8381 0.474106 23.6935 0 22.5 0V0ZM38.25 4.5C36.915 4.5 35.6099 4.89588 34.4999 5.63758C33.3899 6.37928 32.5247 7.43349 32.0138 8.66689C31.5029 9.90029 31.3692 11.2575 31.6297 12.5669C31.8901 13.8762 32.533 15.079 33.477 16.023C34.421 16.967 35.6238 17.6098 36.9331 17.8703C38.2425 18.1308 39.5997 17.9971 40.8331 17.4862C42.0665 16.9753 43.1207 16.1101 43.8624 15.0001C44.6041 13.8901 45 12.585 45 11.25C45 9.45979 44.2888 7.7429 43.023 6.47703C41.7571 5.21116 40.0402 4.5 38.25 4.5ZM13.5 40.5C13.5 41.6935 13.9741 42.8381 14.818 43.682C15.6619 44.5259 16.8065 45 18 45C19.1935 45 20.3381 44.5259 21.182 43.682C22.0259 42.8381 22.5 41.6935 22.5 40.5V22.5H13.5V40.5Z" fill="#B99764"/>
<path d="M61.0312 31.5H58.2483C61.2577 36.9169 63 42.93 63 48.6C63 54.0956 61.3378 58.5352 58.5 62.0339V68.625C58.5 69.5201 58.1444 70.3785 57.5115 71.0115C56.8785 71.6444 56.0201 72 55.125 72C54.2299 72 53.3715 71.6444 52.7385 71.0115C52.1056 70.3785 51.75 69.5201 51.75 68.625V67.5717C46.2727 70.567 39.2147 72 31.5 72C23.7853 72 16.7344 70.567 11.25 67.5717V68.625C11.25 69.5201 10.8944 70.3785 10.2615 71.0115C9.62855 71.6444 8.77011 72 7.875 72C6.97989 72 6.12145 71.6444 5.48851 71.0115C4.85558 70.3785 4.5 69.5201 4.5 68.625V62.0339C1.66219 58.5352 0 54.0956 0 48.6C0 42.93 1.74234 36.9169 4.75172 31.5H1.96875C0.881719 31.5 0 30.7448 0 29.8125V24.1875C0 23.2552 0.881719 22.5 1.96875 22.5H13.5V40.5C13.5 41.6935 13.9741 42.8381 14.818 43.682C15.6619 44.5259 16.8065 45 18 45C19.1935 45 20.3381 44.5259 21.182 43.682C22.0259 42.8381 22.5 41.6935 22.5 40.5V22.5H61.0312C62.1183 22.5 63 23.2552 63 24.1875V29.8125C63 30.7448 62.1183 31.5 61.0312 31.5Z" fill="#B99764"/>
</svg>
